<svg width="9" height="10" viewBox="0 0 9 10" fill="none" xmlns="http://www.w3.org/2000/svg">
<path d="M0.233398 5.18086C0.233398 6.04761 0.490489 6.89489 0.972123 7.61556C1.45376 8.33623 2.13838 8.89793 2.93931 9.22962C3.74024 9.56131 4.62155 9.64809 5.47181 9.479C6.32207 9.30991 7.103 8.89253 7.716 8.27965C8.329 7.66677 8.74649 6.88591 8.91562 6.03582C9.08475 5.18573 8.99791 4.30459 8.66616 3.50382C8.3344 2.70305 7.77261 2.01862 7.0518 1.53709C6.33098 1.05555 5.48357 0.798523 4.61665 0.798523C4.04104 0.798523 3.4711 0.911885 2.93931 1.13212C2.40751 1.35235 1.92421 1.67515 1.51719 2.08209C1.11017 2.48903 0.787308 2.97213 0.567031 3.50382C0.346754 4.03551 0.233398 4.60536 0.233398 5.18086Z" fill="#FE6E46"/>
</svg>
